<svg width="163" height="44" viewBox="0 0 163 44" fill="none" xmlns="http://www.w3.org/2000/svg">
<path d="M58.1105 8.80074C58.1105 11.2265 56.6831 13.2566 53.8248 14.8947C52.5801 15.6084 51.7319 15.9634 51.2733 15.9634C51.1561 15.9634 51.0941 15.9042 51.0941 15.7822C51.0941 15.7082 51.3078 15.5862 51.7388 15.4198C53.3972 14.7542 54.7488 13.8002 55.8004 12.5651C56.852 11.33 57.3761 10.0617 57.3761 8.75637C57.3761 7.54349 56.9692 6.55988 56.1555 5.80183C55.3418 5.04379 54.2764 4.66661 52.9594 4.66661C48.7288 4.66661 44.9396 7.15892 41.5952 12.1472C41.0194 13.0125 39.2644 16.3405 36.3337 22.1313C33.1513 28.362 29.4069 32.1893 25.1005 33.6129C26.3866 33.7793 27.4003 33.8644 28.1416 33.8644C30.8343 33.8644 33.1203 32.9621 34.9994 31.1576C36.6268 29.6119 38.099 27.8074 39.4161 25.744C39.5782 25.5332 39.6988 25.426 39.7712 25.426C39.8298 25.4408 39.8609 25.4704 39.8609 25.5184C39.8609 25.6701 39.1644 26.6648 37.7749 28.4989C36.1337 30.6658 34.627 32.156 33.2582 32.9658C31.8894 33.7756 30.2137 34.1824 28.2312 34.1824C27.0038 34.1824 25.6694 34.0751 24.2351 33.8644C23.1387 34.1676 22.1422 34.3192 21.2389 34.3192C20.47 34.3192 20.0839 34.1528 20.0839 33.82C20.0839 33.4428 20.6907 33.2505 21.9043 33.2505C22.5836 33.2505 23.4352 33.343 24.4558 33.5242C26.4107 32.6441 27.8968 31.5606 28.9173 30.2738C30.0137 28.8797 31.648 25.9622 33.8236 21.5174L34.1788 20.7668H25.5488C24.1593 23.4181 22.9525 25.3816 21.9319 26.6574C20.9114 27.9294 19.5426 29.1645 17.8255 30.3626C14.0535 32.9991 10.4126 34.3192 6.90609 34.3192C4.86495 34.3192 3.20308 33.8755 1.92391 32.988C0.641305 32.0968 0 30.9394 0 29.5158C0 28.7725 0.213768 28.1291 0.644753 27.5818C1.07574 27.0345 1.59981 26.7646 2.22043 26.7646C3.18239 26.7646 3.66164 27.2638 3.66164 28.2659C3.66164 28.7503 3.51338 29.1682 3.21687 29.5158C2.92035 29.8634 2.55143 30.0371 2.10665 30.0371C1.41018 30.0371 1.06195 29.6822 1.06195 28.9685C1.10677 28.5913 1.06195 28.399 0.927478 28.399C0.661992 28.399 0.527525 28.8021 0.527525 29.6045C0.527525 30.847 1.09642 31.8676 2.23767 32.6626C3.37892 33.4576 4.83737 33.857 6.61302 33.857C9.7368 33.857 12.4744 32.9066 14.819 31.0023C17.167 29.0979 19.8287 25.6848 22.8042 20.7594H15.9912L16.1705 20.3046H23.1008C23.28 20.0013 23.58 19.5169 24.011 18.8476C27.121 13.6929 30.0448 10.0913 32.7858 8.04639C33.3616 7.60635 34.134 7.13304 35.0959 6.62644C36.0579 6.11984 36.6509 5.86469 36.875 5.86469C36.9647 5.89428 37.0095 5.95714 37.0095 6.04589C37.0095 6.13463 36.8612 6.24187 36.5647 6.3639C34.7442 7.12194 33.1168 8.42726 31.6825 10.2762C30.2482 12.1251 28.2795 15.4679 25.7798 20.3046H34.4374C37.206 15.2423 40.2126 11.3041 43.4605 8.49012C46.7084 5.67611 49.8804 4.27095 52.9731 4.27095C54.4971 4.27095 55.7383 4.6925 56.69 5.53189C57.6347 6.37869 58.1105 7.46584 58.1105 8.80074ZM29.9758 8.3681C29.9758 8.68611 29.5379 9.32213 28.6656 10.2799C27.3623 11.7183 26.1211 12.4394 24.935 12.4394C24.0903 12.4394 23.3869 12.1324 22.8249 11.5186C22.2629 10.9048 21.9802 10.1504 21.9802 9.25557C21.9802 8.42357 22.2836 7.38449 22.8904 6.14203C23.6455 4.59635 24.0213 3.52769 24.0213 2.93604C24.0213 2.16321 23.6662 1.54198 22.956 1.07236C22.2457 0.60274 21.3148 0.366081 20.1597 0.366081C16.8601 0.366081 13.7605 1.72687 10.8608 4.44844C7.96114 7.17001 6.51304 10.0728 6.51304 13.1678C6.51304 14.7579 6.98539 16.0595 7.93356 17.069C8.88172 18.0785 10.1092 18.5814 11.6193 18.5814C14.5362 18.5814 16.9911 17.2021 18.9874 14.4436C19.0185 14.3511 19.0599 14.2994 19.1219 14.2846C19.2391 14.2846 19.3012 14.3511 19.3012 14.4879C19.3012 14.806 18.8288 15.3902 17.8807 16.2407C15.9257 18.0452 13.8122 18.9475 11.5331 18.9475C9.93333 18.9475 8.63348 18.4187 7.6267 17.3574C6.61992 16.2962 6.11653 14.9169 6.11653 13.2196C6.11653 9.94336 7.59912 6.92596 10.5677 4.15632C13.5364 1.38667 16.7774 0 20.2976 0C23.3904 0 24.9385 1.39407 24.9385 4.1822C24.9385 5.13623 24.6213 6.28255 23.9834 7.61745C23.3456 8.95235 23.0284 9.83982 23.0284 10.2762C23.0284 11.4299 23.6352 12.003 24.8488 12.003C25.5901 12.003 26.4314 11.648 27.3796 10.9344C28.3277 10.2207 29.0587 9.38129 29.5759 8.40877C29.6483 8.25716 29.7241 8.18321 29.7965 8.18321C29.9172 8.18691 29.9758 8.24607 29.9758 8.3681ZM46.4567 27.371V27.0087C47.6807 25.9733 48.6874 25.1819 49.477 24.6421C50.2666 24.1022 50.9492 23.8323 51.5319 23.8323C52.0077 23.8323 52.2422 24.1392 52.2422 24.7567C52.2422 26.062 51.332 27.5079 49.5115 29.0831C48.1944 30.2257 47.5358 30.9764 47.5358 31.3351C47.5358 31.5606 47.6738 31.6716 47.9496 31.6716C48.515 31.6716 49.4977 31.2093 50.901 30.2849C52.3008 29.3605 53.7558 28.2881 55.2625 27.0604C56.7693 25.8365 57.9381 24.8196 58.7621 24.006H60.5068L53.1352 32.2558C54.8488 31.5791 56.321 30.8396 57.5554 30.0371C58.7863 29.2347 60.3378 28.0366 62.2031 26.4429V26.8275C60.4585 28.4064 58.9276 29.6156 57.6105 30.455C56.2934 31.2981 54.6247 32.0857 52.6042 32.8216L52.1905 33.2727C48.9908 36.7893 46.4049 39.4554 44.4293 41.2747C42.4537 43.094 40.8263 44 39.5402 44C38.5921 44 38.1163 43.5637 38.1163 42.6947C38.1163 42.0624 38.5472 41.271 39.4127 40.317C40.2781 39.363 41.6193 38.3054 43.4432 37.1406C45.2671 35.9758 47.5841 34.7555 50.401 33.4798C51.9009 31.5865 53.8455 29.3568 56.2314 26.7868C54.6074 28.0182 53.5386 28.8317 53.018 29.2199C52.4973 29.6082 51.8767 30.0482 51.1596 30.54C50.439 31.0282 49.8011 31.3942 49.2425 31.6346C48.684 31.8749 48.1909 31.997 47.7634 31.997C47.5048 31.997 47.2876 31.9156 47.1221 31.7492C46.9532 31.5828 46.8704 31.3573 46.8704 31.0725C46.8704 30.577 46.9704 30.1037 47.1704 29.6526C47.3703 29.2014 47.6876 28.7466 48.122 28.2881C48.5599 27.8296 49.1426 27.3304 49.877 26.7905C51.194 25.8291 51.8526 25.0858 51.8526 24.5607C51.8526 24.2908 51.7009 24.154 51.394 24.154C50.8734 24.154 50.2011 24.4609 49.3736 25.0784C48.5461 25.6959 47.5738 26.454 46.4567 27.371ZM49.97 33.9272C46.7566 35.5062 44.0363 37.0962 41.8089 38.7048C39.5816 40.3133 38.4679 41.6556 38.4679 42.7391C38.4679 43.009 38.5645 43.2309 38.7541 43.4047C38.9437 43.5785 39.1782 43.6635 39.454 43.6635C39.9884 43.6635 40.5953 43.4786 41.2676 43.1125C41.9399 42.7465 42.695 42.1696 43.5294 41.3894C44.3638 40.6091 45.3396 39.57 46.4567 38.2795C47.0531 37.5584 47.7013 36.7819 48.3978 35.9462C49.0943 35.1105 49.6184 34.4412 49.97 33.9272Z" fill="#4E4848"/>
<path d="M66.6026 29.3871C66.6336 30.0674 66.3612 30.7331 65.7854 31.3839C65.2097 32.0347 64.6028 32.3749 63.9684 32.4081C63.334 32.4414 62.9996 32.116 62.9651 31.4319C62.9341 30.8107 63.2237 30.1747 63.8305 29.5239C64.4373 28.8731 65.0579 28.5292 65.6924 28.4996C66.2681 28.47 66.5716 28.7658 66.6026 29.3871ZM78.2426 6.33504C78.2771 7.03022 76.7152 9.86273 73.5604 14.8289C70.1022 20.235 67.83 24.1991 66.7543 26.7246C66.675 26.9095 66.575 27.0057 66.4578 27.0131C66.3233 27.0205 66.2544 26.9465 66.2475 26.7949C66.244 26.7505 66.3337 26.5841 66.5129 26.3031C67.9093 23.9587 70.116 18.7226 73.1329 10.5912C73.8914 8.52043 74.543 7.08939 75.0809 6.29806C75.6188 5.50304 76.2291 5.09258 76.9083 5.0593C77.753 5.01863 78.2012 5.44387 78.2426 6.33504Z" fill="#4E4848"/>
<path d="M113.976 1.78615C113.976 2.51461 113.263 3.56479 111.835 4.93667C110.408 6.30855 108.663 7.62496 106.608 8.88221C106.343 9.74749 105.95 11.3154 105.433 13.5895C104.605 17.1505 103.843 19.6797 103.147 21.1737C102.45 22.6676 101.305 24.1874 99.7056 25.733C95.0889 30.2037 89.9171 32.4408 84.1902 32.4408C82.549 32.4408 81.0974 32.1598 79.8389 31.5977C79.1425 32.9955 78.7942 34.2084 78.7942 35.24C78.7942 36.5454 79.2183 37.7434 80.07 38.838C80.1596 38.9304 80.1286 39.3372 79.9803 39.3372C79.639 39.3372 79.27 38.8676 78.8735 37.9246C78.477 36.9817 78.2805 36.1016 78.2805 35.2844C78.2805 34.1011 78.6563 32.7958 79.4114 31.3685C76.3187 29.7303 74.7706 26.92 74.7706 22.9338C74.7706 20.3712 75.5119 17.8235 76.991 15.2942C78.4701 12.7612 80.5492 10.4797 83.2282 8.44957C86.645 5.87221 90.0274 4.58538 93.3719 4.58538C95.1923 4.58538 96.637 5.10676 97.7127 6.15324C98.7885 7.19971 99.3229 8.61597 99.3229 10.4057C99.3229 11.3597 99.1884 12.3544 98.9229 13.3861C101.099 11.8996 103.022 10.6424 104.695 9.61067C105.76 7.22929 107.098 5.18442 108.711 3.47234C110.325 1.76027 111.732 0.902378 112.928 0.902378C113.632 0.89868 113.976 1.1945 113.976 1.78615ZM98.9298 10.3133C98.9298 8.7232 98.4368 7.44007 97.4541 6.47125C96.4715 5.50243 95.1716 5.01432 93.558 5.01432C89.5757 5.01432 85.7245 7.13685 82.0042 11.3819C78.284 15.627 76.4221 20.0236 76.4221 24.5719C76.4221 27.5597 77.4944 29.6823 79.639 30.9395C80.6457 29.2422 82.087 27.3859 83.9661 25.3669C82.9903 24.5017 82.5007 23.4737 82.5007 22.2756C82.5007 21.3659 82.7834 20.5894 83.3454 19.946C83.9074 19.3026 84.5901 18.9809 85.3866 18.9809C86.3796 18.9809 86.8726 19.4505 86.8726 20.3897C86.8726 20.8741 86.6864 21.2957 86.3175 21.6507C85.9486 22.0057 85.5107 22.1868 85.0073 22.1868C84.2833 22.1868 83.9212 21.8319 83.9212 21.1182C83.9212 20.8926 83.9936 20.6486 84.1419 20.3897C84.2005 20.1937 84.2315 20.0791 84.2315 20.0495C84.2315 19.9571 84.1867 19.9127 84.0971 19.9127C83.8454 19.9127 83.5868 20.1863 83.3213 20.7299C83.0558 21.2772 82.9213 21.8134 82.9213 22.3459C82.9213 23.348 83.373 24.2391 84.2764 25.0304C87.2519 21.8171 91.9479 18.0638 98.3713 13.7744C98.7436 12.4358 98.9298 11.2821 98.9298 10.3133ZM104.433 10.2208C102.702 11.3412 100.805 12.617 98.7505 14.0406C97.7748 17.254 96.0612 20.0754 93.6132 22.5012C91.1652 24.9269 88.8138 26.1398 86.5658 26.1398C85.8865 26.1398 85.1383 25.9586 84.3246 25.5925C82.6524 27.3675 81.2319 29.2311 80.0631 31.1873C81.2767 31.7493 82.6524 32.0304 84.1902 32.0304C86.9726 32.0304 89.6654 31.2242 92.2685 29.6083C94.8717 27.9924 97.1059 25.7552 98.9712 22.8894C99.8435 21.5545 100.533 20.3158 101.036 19.1732C101.54 18.0268 102.354 15.871 103.478 12.702C103.747 11.9107 104.064 11.0861 104.433 10.2208ZM98.1506 14.4067L96.6853 15.431C91.1066 19.3728 87.0829 22.6528 84.6108 25.2782C85.2314 25.611 85.8969 25.7774 86.6071 25.7774C88.6793 25.7774 90.848 24.6644 93.1098 22.4346C95.3785 20.2048 97.0576 17.5276 98.1506 14.4067ZM113.556 1.83052C113.556 1.46814 113.349 1.28325 112.935 1.28325C111.942 1.28325 110.839 1.98583 109.618 3.38729C108.398 4.78875 107.453 6.43057 106.788 8.30905C108.742 7.08138 110.356 5.85372 111.639 4.62605C112.918 3.39839 113.556 2.46654 113.556 1.83052Z" fill="#4E4848"/>
<path d="M48.4596 25.2195V25.6078C46.8012 27.3051 45.2841 28.5993 43.9084 29.4831C42.5327 30.3706 41.1397 30.8143 39.7365 30.8143C38.4918 30.8143 37.8712 30.0858 37.8712 28.6326C37.8712 27.4197 38.3194 26.3548 39.2124 25.4377C40.1088 24.5206 41.157 23.8144 42.3637 23.3226C43.5705 22.8308 44.5497 22.583 45.3048 22.583C45.7323 22.583 46.0702 22.6865 46.315 22.8899C46.5598 23.0933 46.6805 23.3632 46.6805 23.696C46.6805 24.21 46.4081 24.687 45.8599 25.116C45.3117 25.5449 44.5497 25.9036 43.5739 26.1847C42.5982 26.4657 41.45 26.6284 40.133 26.6728C39.009 27.9781 38.447 28.9691 38.447 29.6532C38.447 29.8972 38.5676 30.0969 38.8124 30.2559C39.0572 30.4149 39.3641 30.4963 39.733 30.4963C42.1189 30.4963 45.0255 28.7361 48.4596 25.2195ZM40.5777 26.2438C41.8052 26.2438 42.843 26.0848 43.6843 25.7668C44.529 25.4488 45.1669 25.0679 45.6047 24.6316C46.0426 24.1915 46.2598 23.8366 46.2598 23.5629C46.2598 23.1229 46.0081 22.9047 45.5047 22.9047C44.8393 22.9047 44.0635 23.2042 43.174 23.8033C42.2879 24.3986 41.4225 25.2121 40.5777 26.2438Z" fill="#4E4848"/>
<path d="M109.68 19.9328L113.366 15.6582H115.276L111.59 19.9328H114.41L114.166 20.3211H111.304L105.911 26.5963C105.318 27.2619 104.663 28.068 103.946 29.0072C103.229 29.9465 102.87 30.4642 102.87 30.5529C102.87 30.8709 103.032 31.0299 103.36 31.0299C104.574 31.0299 107.177 29.2698 111.173 25.7532V26.1414L109.997 27.2101C106.935 29.9686 104.708 31.3479 103.315 31.3479C102.974 31.3479 102.708 31.2481 102.515 31.0521C102.322 30.8561 102.226 30.6269 102.226 30.3717C102.226 29.7653 102.643 28.7558 103.481 27.3469C104.315 25.9381 105.956 23.9819 108.397 21.4785C106.887 22.5102 104.787 24.2445 102.095 26.685V26.3226C102.998 25.4426 104.115 24.4478 105.446 23.3311C106.777 22.2181 108.08 21.2123 109.352 20.3174H107.732L108.042 19.9291H109.68V19.9328Z" fill="#4E4848"/>
<path d="M110.635 26.6858V26.3234C111.611 25.3546 112.973 24.3451 114.721 23.2986H116.586L111.635 29.0746C110.807 30.0434 110.39 30.6054 110.39 30.7571C110.39 30.9087 110.514 30.9826 110.766 30.9826C111.58 30.9826 112.911 30.2431 114.762 28.7639C116.61 27.2848 118.662 25.4618 120.91 23.2949H122.665L117.493 29.3445C117.434 29.4185 117.31 29.5627 117.127 29.7771C116.941 29.9879 116.803 30.1839 116.707 30.3577C116.61 30.5315 116.569 30.6794 116.586 30.8014C116.586 30.953 116.703 31.027 116.941 31.027C117.489 31.027 118.517 30.5241 120.027 29.5146C121.537 28.5051 123.009 27.2516 124.444 25.7503V26.1385C122.978 27.6398 121.517 28.8823 120.062 29.8696C118.603 30.8532 117.534 31.3487 116.855 31.3487C116.338 31.3487 116.079 31.0825 116.079 30.5537C116.079 30.0545 116.303 29.4259 116.755 28.6678C117.207 27.9098 117.907 26.9409 118.851 25.7576L119.272 25.2584L118.451 26.0091C116.662 27.6472 115.117 28.9451 113.824 29.9103C112.528 30.8717 111.511 31.3524 110.773 31.3524C110.225 31.3524 109.952 31.027 109.952 30.3762C109.952 29.9509 110.073 29.485 110.318 28.9784C110.563 28.4718 110.887 27.943 111.294 27.3995C111.7 26.8522 112.135 26.3197 112.593 25.7946C113.052 25.2732 113.517 24.7371 113.993 24.1898L112.862 24.8702C111.835 25.643 111.094 26.2458 110.635 26.6858Z" fill="#4E4848"/>
<path d="M131.502 25.298L143.486 11.2686H145.307L131.322 27.6165C131.012 27.9789 130.671 28.3893 130.302 28.8441C129.933 29.299 129.661 29.654 129.492 29.9128C129.323 30.1716 129.202 30.4194 129.136 30.6635C129.071 30.9075 129.178 31.0258 129.457 31.0258C129.826 31.0258 130.736 30.4379 132.188 29.262C133.639 28.0861 134.998 26.9176 136.274 25.7491V26.1374C134.529 27.6978 133.06 28.9588 131.867 29.9128C130.674 30.8668 129.805 31.3438 129.261 31.3438C128.874 31.3438 128.685 31.1072 128.685 30.6376C128.685 30.0311 128.892 29.2435 129.305 28.271C129.305 28.2562 129.295 28.2377 129.271 28.2155C129.25 28.1933 129.23 28.1822 129.216 28.1822C127.157 30.29 125.537 31.3438 124.354 31.3438C123.51 31.3438 123.089 30.6302 123.089 29.2065C123.089 28.0861 123.503 27.0544 124.334 26.1152C125.161 25.1759 126.182 24.4401 127.395 23.9113C128.609 23.3825 129.688 23.1163 130.636 23.1163C131.391 23.1163 131.767 23.4417 131.767 24.0925C131.767 24.5473 131.678 24.9504 131.502 25.298ZM130.547 23.4343C129.94 23.4343 129.074 23.8706 127.95 24.7433C126.826 25.616 125.83 26.5996 124.965 27.6978C124.099 28.7961 123.665 29.6577 123.665 30.2789C123.665 30.7781 123.896 31.0295 124.354 31.0295C125.006 31.0295 125.906 30.5932 127.05 29.7205C128.199 28.8478 129.219 27.8679 130.112 26.7771C131.009 25.6862 131.453 24.8505 131.453 24.2774C131.457 23.7153 131.153 23.4343 130.547 23.4343Z" fill="#4E4848"/>
<path d="M135.763 26.6398L135.719 26.2774C136.843 25.231 138.16 24.2399 139.67 23.297H141.666L136.429 29.2985C136.06 29.7238 135.822 30.1157 135.719 30.4818C135.615 30.8442 135.705 31.0291 135.984 31.0291C136.725 31.0291 137.825 30.467 139.291 29.3466C140.756 28.2262 142.111 27.0429 143.352 25.8004V26.1887C141.918 27.5975 140.532 28.8104 139.201 29.8273C137.87 30.8442 136.78 31.3508 135.939 31.3508C135.45 31.3508 135.208 31.0846 135.208 30.5558C135.208 28.9805 136.408 26.9615 138.804 24.5062C138.939 24.3694 139.06 24.2362 139.17 24.1068C139.28 23.9774 139.387 23.8591 139.491 23.7555C138.16 24.569 136.918 25.5342 135.763 26.6398ZM143.442 18.501C143.766 18.501 143.931 18.7044 143.931 19.1148C143.931 19.3589 143.866 19.5548 143.731 19.7065C143.597 19.8581 143.428 19.932 143.221 19.932C142.821 19.932 142.621 19.7508 142.621 19.3847C142.621 19.174 142.704 18.9706 142.866 18.782C143.028 18.5934 143.221 18.501 143.442 18.501Z" fill="#4E4848"/>
<path d="M152.789 25.7515V26.1398C151.961 27.1567 151.034 27.6633 150.013 27.6633C149.91 27.6485 149.806 27.6337 149.703 27.6189C149.599 27.6041 149.482 27.5894 149.348 27.5746C146.979 30.0928 144.931 31.35 143.2 31.35C142.876 31.35 142.576 31.2613 142.3 31.0875C142.024 30.9137 141.821 30.6807 141.68 30.3923C141.538 30.1038 141.469 29.771 141.469 29.3902C141.469 28.3733 141.907 27.3823 142.78 26.4098C143.652 25.4409 144.707 24.6459 145.941 24.0321C147.176 23.4182 148.262 23.1113 149.193 23.1113C150.199 23.1113 150.703 23.5883 150.703 24.5424C150.703 25.3152 150.341 26.2175 149.617 27.2492C149.765 27.3083 149.927 27.3416 150.106 27.3416C151.034 27.3453 151.93 26.8128 152.789 25.7515ZM149.258 23.433C148.431 23.433 147.479 23.9137 146.407 24.8752C145.334 25.8366 144.372 26.8942 143.521 28.0479C142.669 29.2016 142.245 29.9116 142.245 30.1852C142.245 30.4293 142.352 30.6289 142.566 30.7879C142.78 30.9469 143.052 31.0283 143.376 31.0283C144.159 31.0283 145.103 30.6289 146.207 29.8339C147.31 29.0389 148.282 28.0996 149.127 27.0125C149.972 25.9253 150.392 25.0749 150.392 24.4536C150.392 24.1504 150.286 23.9027 150.072 23.7141C149.855 23.5292 149.586 23.433 149.258 23.433Z" fill="#4E4848"/>
<path d="M155.785 8.37194C154.806 8.89333 153.837 9.40732 152.868 9.90652C151.903 10.4094 150.941 10.9049 149.976 11.3856L150.055 11.2488L150.134 14.2921C150.148 15.309 150.172 16.3222 150.172 17.3391L150.186 20.3861C150.189 21.4029 150.21 22.4161 150.224 23.433L150.162 23.3776C152.099 22.919 154.034 22.4309 155.968 21.9354C157.902 21.4436 159.836 20.974 161.774 20.5044L161.64 20.656C161.791 19.5208 161.947 18.3892 162.115 17.2577L162.605 13.8632L162.671 14.0369L159.24 11.2377L155.785 8.37194ZM155.789 8.33496L159.319 11.0085L162.871 13.7485C162.922 13.7892 162.946 13.8558 162.936 13.9186V13.9223L162.464 17.3206C162.309 18.4521 162.147 19.5836 161.978 20.7152V20.7189C161.967 20.7965 161.912 20.8557 161.843 20.8705C159.902 21.3179 157.957 21.7616 156.013 22.1869C154.065 22.6084 152.12 23.0374 150.179 23.4922C150.151 23.4996 150.124 23.4811 150.117 23.4478V23.4367C150.086 22.4235 150.069 21.4066 150.027 20.3934L149.913 17.3502C149.872 16.337 149.855 15.3201 149.827 14.3069L149.779 11.2599C149.779 11.2007 149.81 11.1453 149.858 11.1231C150.848 10.6387 151.844 10.1691 152.834 9.70314C153.827 9.22983 154.813 8.78239 155.789 8.33496Z" fill="#4E4848"/>
<path d="M149.917 11.2529C150.951 11.9777 151.962 12.7357 152.968 13.4975C153.979 14.2555 154.972 15.0395 155.965 15.8197C156.954 16.6073 157.94 17.3987 158.913 18.2122L160.371 19.4324C160.85 19.8503 161.333 20.257 161.805 20.686C161.288 20.3273 160.781 19.9464 160.268 19.5804L158.754 18.4414C157.744 17.6834 156.751 16.8995 155.758 16.1192C154.768 15.3279 153.782 14.5403 152.81 13.7268C151.838 12.9169 150.865 12.0997 149.917 11.2529Z" fill="#4E4848"/>
<path d="M155.803 8.3554L154.393 14.797L154.262 14.6934L159.371 11.2249C159.437 11.1805 159.523 11.2027 159.564 11.273C159.585 11.3099 159.592 11.3543 159.582 11.3913V11.395L158.795 14.4715C158.533 15.4958 158.258 16.5164 157.978 17.537L157.716 17.3336C158.554 16.7494 159.382 16.1577 160.223 15.5809C161.061 15.0003 161.909 14.4346 162.757 13.8725C162.764 13.8688 162.774 13.8688 162.781 13.8799C162.785 13.8873 162.785 13.8984 162.778 13.9058C161.978 14.5455 161.171 15.1741 160.357 15.7954C159.547 16.4166 158.723 17.0267 157.909 17.6406C157.834 17.6997 157.727 17.6775 157.671 17.5962C157.64 17.5481 157.634 17.4926 157.647 17.4446V17.4409C157.913 16.4166 158.182 15.3923 158.464 14.3754L159.313 11.3173L159.52 11.4837L154.355 14.8561C154.313 14.882 154.262 14.8672 154.234 14.8265C154.22 14.8043 154.22 14.7785 154.224 14.7563L155.772 8.35171C155.775 8.34061 155.782 8.33691 155.792 8.33691C155.799 8.33691 155.806 8.34801 155.803 8.3554Z" fill="#4E4848"/>
<path d="M154.306 14.7764C153.679 16.2518 153.02 17.7124 152.355 19.1693C151.693 20.6263 151 22.0684 150.324 23.5179L150.072 23.285L151.989 21.8096C152.631 21.3215 153.265 20.8223 153.913 20.3452L155.851 18.9031C156.506 18.4335 157.151 17.9528 157.813 17.4905C157.199 18.0193 156.572 18.5296 155.955 19.051L154.072 20.5782C153.448 21.0922 152.807 21.5803 152.176 22.0832L150.272 23.5808C150.197 23.64 150.09 23.6252 150.035 23.5438C149.993 23.4847 149.993 23.4107 150.021 23.3515C150.724 21.9168 151.41 20.471 152.127 19.0436C152.838 17.6126 153.555 16.1852 154.306 14.7764Z" fill="#4E4848"/>
</svg>
